<mxfile host="app.diagrams.net" modified="2022-06-30T05:57:53.529Z" agent="5.0 (Windows NT 10.0; Win64; x64) AppleWebKit/537.36 (KHTML, like Gecko) Chrome/102.0.0.0 Safari/537.36" etag="JOkHsuNYWJp_d5LcSO5l" version="20.0.3" type="github">
  <diagram id="AbGB8vphmDzImQ63fVPD" name="nginx架构">
    <mxGraphModel dx="1422" dy="762" grid="1" gridSize="10" guides="1" tooltips="1" connect="1" arrows="1" fold="1" page="1" pageScale="1" pageWidth="827" pageHeight="1169" math="0" shadow="0">
      <root>
        <mxCell id="0" />
        <mxCell id="1" parent="0" />
        <mxCell id="PTd9Yx-x4nZZ-ReN7KOH-13" style="edgeStyle=orthogonalEdgeStyle;rounded=0;orthogonalLoop=1;jettySize=auto;html=1;exitX=0.5;exitY=1;exitDx=0;exitDy=0;" edge="1" parent="1" source="PTd9Yx-x4nZZ-ReN7KOH-1" target="PTd9Yx-x4nZZ-ReN7KOH-9">
          <mxGeometry relative="1" as="geometry" />
        </mxCell>
        <mxCell id="PTd9Yx-x4nZZ-ReN7KOH-14" style="edgeStyle=orthogonalEdgeStyle;rounded=0;orthogonalLoop=1;jettySize=auto;html=1;exitX=0.5;exitY=1;exitDx=0;exitDy=0;entryX=0.5;entryY=0;entryDx=0;entryDy=0;" edge="1" parent="1" source="PTd9Yx-x4nZZ-ReN7KOH-1" target="PTd9Yx-x4nZZ-ReN7KOH-10">
          <mxGeometry relative="1" as="geometry" />
        </mxCell>
        <mxCell id="PTd9Yx-x4nZZ-ReN7KOH-1" value="nginx&lt;br&gt;192.168.0.1" style="rounded=0;whiteSpace=wrap;html=1;fillColor=#fff2cc;strokeColor=#d6b656;" vertex="1" parent="1">
          <mxGeometry x="160" y="250" width="120" height="60" as="geometry" />
        </mxCell>
        <mxCell id="PTd9Yx-x4nZZ-ReN7KOH-11" style="edgeStyle=orthogonalEdgeStyle;rounded=0;orthogonalLoop=1;jettySize=auto;html=1;exitX=0.5;exitY=1;exitDx=0;exitDy=0;" edge="1" parent="1" source="PTd9Yx-x4nZZ-ReN7KOH-2" target="PTd9Yx-x4nZZ-ReN7KOH-9">
          <mxGeometry relative="1" as="geometry" />
        </mxCell>
        <mxCell id="PTd9Yx-x4nZZ-ReN7KOH-12" style="edgeStyle=orthogonalEdgeStyle;rounded=0;orthogonalLoop=1;jettySize=auto;html=1;exitX=0.5;exitY=1;exitDx=0;exitDy=0;" edge="1" parent="1" source="PTd9Yx-x4nZZ-ReN7KOH-2" target="PTd9Yx-x4nZZ-ReN7KOH-10">
          <mxGeometry relative="1" as="geometry" />
        </mxCell>
        <mxCell id="PTd9Yx-x4nZZ-ReN7KOH-2" value="nginx&lt;br&gt;192.168.0.2" style="rounded=0;whiteSpace=wrap;html=1;fillColor=#fff2cc;strokeColor=#d6b656;" vertex="1" parent="1">
          <mxGeometry x="340" y="250" width="120" height="60" as="geometry" />
        </mxCell>
        <mxCell id="PTd9Yx-x4nZZ-ReN7KOH-15" value="" style="edgeStyle=orthogonalEdgeStyle;rounded=0;orthogonalLoop=1;jettySize=auto;html=1;" edge="1" parent="1" source="PTd9Yx-x4nZZ-ReN7KOH-3" target="PTd9Yx-x4nZZ-ReN7KOH-10">
          <mxGeometry relative="1" as="geometry" />
        </mxCell>
        <mxCell id="PTd9Yx-x4nZZ-ReN7KOH-3" value="nginx&lt;br&gt;192.168.0.3" style="rounded=0;whiteSpace=wrap;html=1;fillColor=#fff2cc;strokeColor=#d6b656;" vertex="1" parent="1">
          <mxGeometry x="520" y="250" width="120" height="60" as="geometry" />
        </mxCell>
        <mxCell id="PTd9Yx-x4nZZ-ReN7KOH-5" style="edgeStyle=orthogonalEdgeStyle;rounded=0;orthogonalLoop=1;jettySize=auto;html=1;exitX=0.5;exitY=1;exitDx=0;exitDy=0;" edge="1" parent="1" source="PTd9Yx-x4nZZ-ReN7KOH-4" target="PTd9Yx-x4nZZ-ReN7KOH-2">
          <mxGeometry relative="1" as="geometry" />
        </mxCell>
        <mxCell id="PTd9Yx-x4nZZ-ReN7KOH-7" style="edgeStyle=orthogonalEdgeStyle;rounded=0;orthogonalLoop=1;jettySize=auto;html=1;exitX=0.5;exitY=1;exitDx=0;exitDy=0;entryX=0.5;entryY=0;entryDx=0;entryDy=0;" edge="1" parent="1" source="PTd9Yx-x4nZZ-ReN7KOH-4" target="PTd9Yx-x4nZZ-ReN7KOH-1">
          <mxGeometry relative="1" as="geometry" />
        </mxCell>
        <mxCell id="PTd9Yx-x4nZZ-ReN7KOH-8" style="edgeStyle=orthogonalEdgeStyle;rounded=0;orthogonalLoop=1;jettySize=auto;html=1;exitX=0.5;exitY=1;exitDx=0;exitDy=0;" edge="1" parent="1" source="PTd9Yx-x4nZZ-ReN7KOH-4" target="PTd9Yx-x4nZZ-ReN7KOH-3">
          <mxGeometry relative="1" as="geometry" />
        </mxCell>
        <mxCell id="PTd9Yx-x4nZZ-ReN7KOH-4" value="虚拟ip&lt;br&gt;192.168.0.4" style="rounded=0;whiteSpace=wrap;html=1;fillColor=#ffe6cc;strokeColor=#d79b00;" vertex="1" parent="1">
          <mxGeometry x="340" y="110" width="120" height="60" as="geometry" />
        </mxCell>
        <mxCell id="PTd9Yx-x4nZZ-ReN7KOH-9" value="软件平台" style="rounded=0;whiteSpace=wrap;html=1;fillColor=#f8cecc;strokeColor=#b85450;" vertex="1" parent="1">
          <mxGeometry x="240" y="410" width="120" height="60" as="geometry" />
        </mxCell>
        <mxCell id="PTd9Yx-x4nZZ-ReN7KOH-10" value="软件平台" style="rounded=0;whiteSpace=wrap;html=1;fillColor=#f8cecc;strokeColor=#b85450;" vertex="1" parent="1">
          <mxGeometry x="440" y="410" width="120" height="60" as="geometry" />
        </mxCell>
      </root>
    </mxGraphModel>
  </diagram>
</mxfile>
